<svg id="Группа_3_копия_5" data-name="Группа 3 копия 5" xmlns="http://www.w3.org/2000/svg" width="512" height="512" viewBox="0 0 512 512" fill="var(--icon-color)" fill-rule='evenodd'>
  <path id="Прямоугольник_3_копия_2" data-name="Прямоугольник 3 копия 2" class="cls-1" d="M30,62c0-9.644,8.6-17.986,18.234-17.986A17.444,17.444,0,0,1,65.4,58.459v59.948a16.224,16.224,0,0,0,16.226,16.222h2.444A16.225,16.225,0,0,0,100.3,118.407V75.17a17.449,17.449,0,1,1,34.9,0V94.81a16.224,16.224,0,0,0,16.226,16.221h2.445A16.224,16.224,0,0,0,170.1,94.81V61.476a17.449,17.449,0,1,1,34.9,0v63.539a16.224,16.224,0,0,0,16.227,16.221h2.444a16.224,16.224,0,0,0,16.227-16.221v-30.5a17.449,17.449,0,1,1,34.9,0V91.034a16.224,16.224,0,0,0,16.226,16.222h2.445a16.224,16.224,0,0,0,16.226-16.222V73.747a17.449,17.449,0,1,1,34.9,0v44.66a16.225,16.225,0,0,0,16.227,16.222h2.444a16.225,16.225,0,0,0,16.227-16.222V91.5a17.444,17.444,0,0,1,17.17-14.445c8.67,0,16.166,6.081,17.588,14.322v4.808A16.224,16.224,0,0,0,430.464,112.4h2.445a16.224,16.224,0,0,0,16.226-16.221V63.5A17.425,17.425,0,0,1,483,63.829v359.13a46.041,46.041,0,0,1-46.047,46.034H76.048A46.041,46.041,0,0,1,30,422.959V61.672M261.328,373.157a71.922,71.922,0,0,0,63.153-73.34L182.506,317A71.921,71.921,0,0,0,261.328,373.157Zm-98.7-174.88a44.038,44.038,0,1,0,44.131,44.038A44.085,44.085,0,0,0,162.629,198.277Zm25.838,111.115a6.828,6.828,0,0,0-5.956,7.6l141.965-17.176s-1.149-6.742-7.6-5.962ZM348.793,198.5a44.086,44.086,0,0,0-38.416,49.1c2.975,24.139,19.556,8.356,43.746,5.375s46.83,7.97,43.856-16.169A44.086,44.086,0,0,0,348.793,198.5Z"/>
</svg>
