<?xml version="1.0" encoding="utf-8"?>
<!-- Generator: Adobe Illustrator 25.4.1, SVG Export Plug-In . SVG Version: 6.00 Build 0)  -->
<svg version="1.1" id="Слой_1" xmlns="http://www.w3.org/2000/svg" xmlns:xlink="http://www.w3.org/1999/xlink" x="0px" y="0px"
	 viewBox="0 0 24 24" style="enable-background:new 0 0 24 24;" xml:space="preserve">
<!-- <style type="text/css">
	.st0{fill:#2F2F2F;}
</style> -->
<path class="st0" d="M3.9,3.7h4.5l1.4,3.6L7.5,8.9C7.3,9,7.2,9.1,7.2,9.2C7.1,9.4,7,9.5,7,9.7c0,0.1,0,0,0,0v0c0,0,0,0.1,0,0.1
	c0,0.1,0,0.2,0,0.3c0,0.3,0.1,0.6,0.3,1.1c0.3,0.9,0.9,2,2,3.1s2.3,1.7,3.1,2c0.4,0.1,0.8,0.2,1.1,0.3c0.2,0,0.3,0,0.5,0l0,0h0
	c0,0,0.1,0,0,0c0.2,0,0.4-0.1,0.5-0.1c0.2-0.1,0.3-0.2,0.4-0.4l0.7-1.3l4.4,0.7v4.3c-2.1,0.3-7.8,0.6-12.3-3.9
	C3.3,11.5,3.6,5.8,3.9,3.7z M9.1,10.2L10.9,9c0.4-0.3,0.7-0.6,0.8-1.1c0.1-0.4,0.1-0.9-0.1-1.3L10.2,3c-0.1-0.4-0.4-0.7-0.7-0.9
	C9.1,1.8,8.8,1.7,8.4,1.7H3.8c-0.9,0-1.8,0.6-1.9,1.6c-0.3,2.2-0.8,8.9,4.4,14.1s11.8,4.8,14.1,4.4c1-0.1,1.6-1,1.6-1.9v-4.4
	c0-0.5-0.2-0.9-0.5-1.3c-0.3-0.4-0.7-0.6-1.2-0.7l-4.4-0.7c-0.4-0.1-0.9,0-1.2,0.2c-0.4,0.2-0.7,0.5-0.9,0.9l-0.3,0.7
	c-0.1,0-0.2-0.1-0.4-0.1c-0.6-0.2-1.5-0.6-2.4-1.5c-0.9-0.9-1.3-1.7-1.5-2.4C9.2,10.5,9.1,10.4,9.1,10.2L9.1,10.2z" 
	fill="var(--icon-color)" />
<path class="st0" d="M19.2,10.3l-5.7-5.7c-0.5-0.5-0.5-1.3,0-1.8l0,0c0.5-0.5,1.3-0.5,1.8,0L21,8.5c0.5,0.5,0.5,1.3,0,1.8l0,0
	C20.5,10.8,19.7,10.8,19.2,10.3z" fill="var(--icon-color)"/>
<path class="st0" d="M13.5,8.5l5.7-5.7c0.5-0.5,1.3-0.5,1.8,0l0,0c0.5,0.5,0.5,1.3,0,1.8l-5.7,5.7c-0.5,0.5-1.3,0.5-1.8,0l0,0
	C13,9.8,13,9,13.5,8.5z" fill="var(--icon-color)"/>
</svg>
