<svg width="24px" height="24px" viewBox="0 0 56 56" fill="none" xmlns="http://www.w3.org/2000/svg">
<path d="M9.023 8.66667H19.4997L22.876 17.1087L17.451 20.7253C17.1315 20.9385 16.8696 21.2272 16.6885 21.5658C16.5073 21.9045 16.4126 22.2826 16.4127 22.6667C16.4197 22.886 16.4127 22.669 16.4127 22.669V22.718C16.4138 22.8223 16.4185 22.9266 16.4267 23.0307C16.4391 23.2236 16.4663 23.4802 16.5083 23.8007C16.5993 24.4307 16.7743 25.2987 17.115 26.3207C17.801 28.374 19.145 31.0317 21.763 33.6497C24.381 36.2677 27.0387 37.6117 29.0897 38.2977C30.114 38.6383 30.9797 38.811 31.6143 38.9043C31.9723 38.9564 32.3331 38.9875 32.6947 38.9977L32.725 39H32.7437C32.7437 39 33.005 38.986 32.746 39C33.1792 38.9998 33.6038 38.8789 33.9722 38.651C34.3407 38.4232 34.6384 38.0972 34.832 37.7097L36.3953 34.583L46.746 36.3097V46.3897C41.8203 47.1013 28.5157 47.8037 18.0623 37.3503C7.609 26.897 8.309 13.59 9.023 8.66667ZM21.2497 23.8007L25.466 20.9913C26.3567 20.3972 27.0161 19.5148 27.3334 18.4922C27.6508 17.4697 27.6069 16.369 27.209 15.375L23.8327 6.933C23.4862 6.06711 22.8882 5.3249 22.1159 4.80211C21.3436 4.27932 20.4323 3.99994 19.4997 4H8.90167C6.78067 4 4.78567 5.47233 4.438 7.773C3.64467 13.0043 2.569 28.4557 14.763 40.6497C26.957 52.8437 42.4083 51.7657 47.6397 50.9747C49.9403 50.6247 51.4127 48.632 51.4127 46.511V36.3097C51.4128 35.205 51.0211 34.1361 50.3071 33.2931C49.5932 32.4501 48.6033 31.8877 47.5137 31.706L37.163 29.9817C36.1786 29.8173 35.1674 29.973 34.2779 30.4257C33.3884 30.8784 32.6675 31.6044 32.221 32.497L31.4137 34.114C31.1283 34.043 30.8458 33.9613 30.5667 33.869C29.12 33.3883 27.111 32.399 25.0623 30.3503C23.0137 28.3017 22.0243 26.2927 21.5437 24.8437C21.4304 24.5007 21.333 24.1527 21.252 23.8007H21.2497Z" fill="var(--icon-color)" stroke="var(--icon-color)" stroke-linejoin="round"/>
</svg>
