<svg width="24px" viewBox="0 0 52 51" fill="none" xmlns="http://www.w3.org/2000/svg">
<path d="M26.056 44.3661C30.2748 44.3654 34.3736 42.9618 37.7071 40.376C41.0406 37.7902 43.4195 34.1692 44.4692 30.0831C45.519 25.997 45.1799 21.6778 43.5055 17.8055C41.8311 13.9332 38.9163 10.7277 35.2202 8.69375C31.5241 6.65979 27.2565 5.91283 23.0892 6.57048C18.922 7.22813 15.0918 9.25303 12.2017 12.3264C9.31156 15.3998 7.52564 19.3471 7.1251 23.5468C6.72455 27.7466 7.73213 31.9603 9.98919 35.5245L7.04202 44.3661L15.8835 41.4189C18.9249 43.3492 22.4539 44.3716 26.056 44.3661Z" stroke="var(--icon-color)" stroke-width="6" stroke-linecap="round" stroke-linejoin="round"/>
</svg>