<svg width="24px" viewBox="0 0 51 53" fill="none" xmlns="http://www.w3.org/2000/svg">
    <path fill-rule="evenodd" clip-rule="evenodd" fill="var(--icon-color)" stroke="var(--icon-color)" d="M14.7887 2.73865C15.2089 2.73865 15.6119 2.91177 15.9091 3.21993C16.2062 3.52808 16.3732 3.94603 16.3732 4.38183V8.21593H16.9964C17.9112 8.21593 18.7499 8.21593 19.4302 8.31014C20.1823 8.41531 20.9746 8.66069 21.6274 9.33987C22.2802 10.0191 22.5189 10.8385 22.6203 11.6184C22.7112 12.3261 22.7112 13.1959 22.7112 14.1424V17.2688C22.852 17.3842 22.9886 17.5105 23.121 17.6478C24.0844 18.6469 24.4774 19.8891 24.6548 21.2628C24.7774 22.2137 24.8112 23.3442 24.8196 24.6478H25.8802V16.892C25.8802 14.1358 25.8802 11.8813 26.1253 10.1615C26.3788 8.37806 26.9429 6.78746 28.3816 5.75335C29.8182 4.71923 31.4555 4.73019 33.1541 5.10922C34.7914 5.47729 36.828 6.26821 39.3168 7.23441L39.5196 7.31547C40.7766 7.80404 41.8435 8.21813 42.678 8.6585C43.5653 9.12736 44.3365 9.69261 44.9174 10.5602C45.4963 11.4278 45.7372 12.3721 45.847 13.3996C45.9505 14.3658 45.9505 15.5467 45.9505 16.9402V46.5569H46.4787C46.8989 46.5569 47.302 46.7301 47.5991 47.0382C47.8963 47.3464 48.0632 47.7643 48.0632 48.2001C48.0632 48.6359 47.8963 49.0539 47.5991 49.362C47.302 49.6702 46.8989 49.8433 46.4787 49.8433H4.22534C3.8051 49.8433 3.40208 49.6702 3.10493 49.362C2.80778 49.0539 2.64084 48.6359 2.64084 48.2001C2.64084 47.7643 2.80778 47.3464 3.10493 47.0382C3.40208 46.7301 3.8051 46.5569 4.22534 46.5569H4.75351V26.1771C4.75351 24.2074 4.75351 22.5664 4.92252 21.265C5.09998 19.8891 5.49294 18.6469 6.4542 17.65C6.58801 17.5113 6.72533 17.3842 6.86617 17.2688V14.1424C6.86617 13.1937 6.86617 12.3239 6.95702 11.6184C7.05843 10.8385 7.29505 10.0169 7.94997 9.33987C8.6049 8.66288 9.39504 8.41531 10.1471 8.31014C10.8295 8.21593 11.6683 8.21593 12.5809 8.21593H13.2042V4.38183C13.2042 3.94603 13.3711 3.52808 13.6683 3.21993C13.9654 2.91177 14.3684 2.73865 14.7887 2.73865ZM10.0352 16.0463C11.2774 15.8841 12.8281 15.8841 14.6788 15.8841H14.8985C16.7492 15.8841 18.2999 15.8841 19.5422 16.0463V14.241C19.5422 13.1608 19.538 12.5167 19.4788 12.0566C19.4656 11.9239 19.4358 11.7935 19.3901 11.6688L19.388 11.6622L19.3816 11.6601L19.3605 11.6491C19.2465 11.6072 19.128 11.58 19.0077 11.568C18.564 11.5067 17.9429 11.5023 16.9013 11.5023H12.676C11.6345 11.5023 11.0133 11.5067 10.5697 11.568C10.4417 11.5817 10.316 11.6126 10.1957 11.6601L10.1894 11.6622L10.1873 11.6688L10.1767 11.6907C10.1363 11.8089 10.1101 11.9318 10.0986 12.0566C10.0394 12.5167 10.0352 13.1608 10.0352 14.241V16.0463ZM7.92251 46.5569H13.2042V34.9407C13.2042 32.9711 13.2042 31.3301 13.3732 30.0287C13.5507 28.6528 13.9436 27.4105 14.9049 26.4137C15.8683 25.4146 17.0661 25.0071 18.3908 24.8231C19.3077 24.696 20.3936 24.6609 21.6506 24.6522C21.6422 23.4034 21.6126 22.4613 21.5154 21.701C21.3823 20.691 21.1563 20.2572 20.8816 19.9724C20.607 19.6876 20.1887 19.4531 19.2126 19.3151C18.1964 19.1771 16.8274 19.1705 14.7887 19.1705C12.75 19.1705 11.3831 19.1749 10.3626 19.3173C9.3887 19.4531 8.97039 19.6876 8.69575 19.9746C8.4211 20.2616 8.19504 20.691 8.06194 21.701C7.92673 22.7592 7.92251 24.1789 7.92251 26.291V46.5569ZM16.3732 46.5569H34.3309V35.0546C34.3309 32.9426 34.3266 31.5229 34.1893 30.4647C34.0583 29.4547 33.8323 29.0209 33.5555 28.736C33.2788 28.4512 32.8647 28.2168 31.8907 28.0788C30.8703 27.9386 29.5013 27.9342 27.4647 27.9342H23.2394C21.2027 27.9342 19.8337 27.9386 18.8133 28.0788C17.8394 28.2168 17.4211 28.4512 17.1464 28.736C16.8718 29.0209 16.6457 29.4547 16.5126 30.4669C16.3774 31.5229 16.3732 32.9426 16.3732 35.0546V46.5569ZM37.4999 46.5569H42.7815V17.0278C42.7815 15.5226 42.7794 14.528 42.697 13.7633C42.6189 13.0403 42.4858 12.6898 42.3104 12.4313C42.1393 12.1727 41.8667 11.9164 41.2435 11.5878C40.5822 11.2416 39.6865 10.8889 38.328 10.3608C35.6851 9.3333 33.8703 8.63002 32.4865 8.32329C31.1344 8.02094 30.5661 8.18088 30.1858 8.45474C29.8055 8.72642 29.4612 9.22376 29.2605 10.6413C29.0534 12.0917 29.0492 14.1029 29.0492 17.0278V24.6522C30.3062 24.6609 31.3964 24.696 32.3111 24.8231C33.6379 25.0071 34.8358 25.4146 35.7971 26.4137C36.7604 27.4105 37.1534 28.6528 37.3308 30.0287C37.4999 31.3301 37.4999 32.9733 37.4999 34.9407V46.5569ZM19.5422 32.8637C19.5422 32.4279 19.7091 32.01 20.0063 31.7018C20.3034 31.3937 20.7064 31.2205 21.1267 31.2205H29.5774C29.9976 31.2205 30.4006 31.3937 30.6978 31.7018C30.9949 32.01 31.1619 32.4279 31.1619 32.8637C31.1619 33.2995 30.9949 33.7175 30.6978 34.0256C30.4006 34.3338 29.9976 34.5069 29.5774 34.5069H21.1267C20.7064 34.5069 20.3034 34.3338 20.0063 34.0256C19.7091 33.7175 19.5422 33.2995 19.5422 32.8637ZM19.5422 39.4365C19.5422 39.0007 19.7091 38.5827 20.0063 38.2746C20.3034 37.9664 20.7064 37.7933 21.1267 37.7933H29.5774C29.9976 37.7933 30.4006 37.9664 30.6978 38.2746C30.9949 38.5827 31.1619 39.0007 31.1619 39.4365C31.1619 39.8723 30.9949 40.2902 30.6978 40.5984C30.4006 40.9065 29.9976 41.0797 29.5774 41.0797H21.1267C20.7064 41.0797 20.3034 40.9065 20.0063 40.5984C19.7091 40.2902 19.5422 39.8723 19.5422 39.4365Z"/>
</svg>
