<svg width="24px" viewBox="0 0 52 51" fill="none" xmlns="http://www.w3.org/2000/svg">
<path fill-rule="evenodd" clip-rule="evenodd" d="M17.8376 19.6931C19.0983 19.6931 20.3074 19.1923 21.1988 18.3009C22.0903 17.4094 22.5911 16.2003 22.5911 14.9396C22.5911 13.6789 22.0903 12.4698 21.1988 11.5784C20.3074 10.6869 19.0983 10.1861 17.8376 10.1861C16.5769 10.1861 15.3678 10.6869 14.4764 11.5784C13.5849 12.4698 13.0841 13.6789 13.0841 14.9396C13.0841 16.2003 13.5849 17.4094 14.4764 18.3009C15.3678 19.1923 16.5769 19.6931 17.8376 19.6931ZM17.8376 24.4466C20.359 24.4466 22.7771 23.445 24.5601 21.6621C26.343 19.8792 27.3446 17.461 27.3446 14.9396C27.3446 12.4182 26.343 10.0001 24.5601 8.21715C22.7771 6.43425 20.359 5.43262 17.8376 5.43262C15.3162 5.43262 12.898 6.43425 11.1151 8.21715C9.33221 10.0001 8.33059 12.4182 8.33059 14.9396C8.33059 17.461 9.33221 19.8792 11.1151 21.6621C12.898 23.445 15.3162 24.4466 17.8376 24.4466ZM8.23868 33.5924C5.77637 35.3036 5.16158 36.961 5.16158 37.7311C5.16158 39.1445 6.30876 40.2916 7.72214 40.2916H27.953C28.6316 40.29 29.2819 40.0197 29.7618 39.5398C30.2416 39.06 30.5119 38.4097 30.5136 37.7311C30.5136 36.9578 29.8988 35.3005 27.4365 33.5924C25.1009 31.973 21.7006 30.7846 17.8376 30.7846C13.9746 30.7846 10.5742 31.973 8.23868 33.5924ZM0.408081 37.7311C0.408081 31.8811 8.25136 26.0311 17.8376 26.0311C21.577 26.0311 25.0566 26.9216 27.9055 28.3572C30.6337 26.8149 33.7178 26.0131 36.8516 26.0311C44.6949 26.0311 51.1121 30.9051 51.1121 35.7821C51.1121 37.3984 50.4701 38.9484 49.3272 40.0913C48.1844 41.2341 46.6343 41.8761 45.0181 41.8761H33.9805C32.6622 43.7902 30.4534 45.0451 27.953 45.0451H7.72214C5.78284 45.0435 3.92346 44.2723 2.55217 42.9011C1.18088 41.5298 0.409759 39.6704 0.408081 37.7311ZM35.2386 37.1226H45.0181C45.7597 37.1226 46.3586 36.5205 46.3586 35.7821C46.3586 35.4557 46.0544 34.2864 44.1783 32.9617C42.4227 31.7163 39.821 30.7846 36.8516 30.7846C35.2132 30.7846 33.6858 31.0698 32.3516 31.5325C34.0185 33.2248 35.0579 35.1642 35.2386 37.1226ZM40.0206 16.5241C40.0206 17.3646 39.6867 18.1706 39.0924 18.7649C38.4981 19.3592 37.6921 19.6931 36.8516 19.6931C36.0111 19.6931 35.2051 19.3592 34.6108 18.7649C34.0165 18.1706 33.6826 17.3646 33.6826 16.5241C33.6826 15.6837 34.0165 14.8776 34.6108 14.2833C35.2051 13.689 36.0111 13.3551 36.8516 13.3551C37.6921 13.3551 38.4981 13.689 39.0924 14.2833C39.6867 14.8776 40.0206 15.6837 40.0206 16.5241ZM44.7741 16.5241C44.7741 18.6253 43.9394 20.6404 42.4537 22.1262C40.9679 23.6119 38.9528 24.4466 36.8516 24.4466C34.7504 24.4466 32.7353 23.6119 31.2495 22.1262C29.7638 20.6404 28.9291 18.6253 28.9291 16.5241C28.9291 14.4229 29.7638 12.4078 31.2495 10.9221C32.7353 9.43631 34.7504 8.60162 36.8516 8.60162C38.9528 8.60162 40.9679 9.43631 42.4537 10.9221C43.9394 12.4078 44.7741 14.4229 44.7741 16.5241Z" fill="var(--icon-color)"/>
</svg>
