<svg width="24px" viewBox="0 0 57 56" fill="none" xmlns="http://www.w3.org/2000/svg">
<path fill-rule="evenodd" clip-rule="evenodd" d="M35.1121 15.75C35.1121 17.6065 34.3746 19.387 33.0618 20.6997C31.7491 22.0125 29.9686 22.75 28.1121 22.75C26.2555 22.75 24.4751 22.0125 23.1623 20.6997C21.8496 19.387 21.1121 17.6065 21.1121 15.75C21.1121 13.8935 21.8496 12.113 23.1623 10.8003C24.4751 9.4875 26.2555 8.75 28.1121 8.75C29.9686 8.75 31.7491 9.4875 33.0618 10.8003C34.3746 12.113 35.1121 13.8935 35.1121 15.75ZM40.3621 15.75C40.3621 18.9989 39.0714 22.1147 36.7741 24.4121C34.4768 26.7094 31.361 28 28.1121 28C24.8632 28 21.7473 26.7094 19.45 24.4121C17.1527 22.1147 15.8621 18.9989 15.8621 15.75C15.8621 12.5011 17.1527 9.38526 19.45 7.08794C21.7473 4.79062 24.8632 3.5 28.1121 3.5C31.361 3.5 34.4768 4.79062 36.7741 7.08794C39.0714 9.38526 40.3621 12.5011 40.3621 15.75ZM8.86206 43.75C8.86206 43.036 9.63206 40.9185 13.4821 38.6435C17.0451 36.54 22.2321 35 28.1121 35C33.9921 35 39.1791 36.54 42.7421 38.6435C46.5921 40.9185 47.3621 43.036 47.3621 43.75C47.3621 44.6783 46.9933 45.5685 46.3369 46.2249C45.6806 46.8812 44.7903 47.25 43.8621 47.25H12.3621C11.4338 47.25 10.5436 46.8812 9.88719 46.2249C9.23081 45.5685 8.86206 44.6783 8.86206 43.75ZM28.1121 29.75C14.6371 29.75 3.61206 36.75 3.61206 43.75C3.61206 46.0706 4.53393 48.2962 6.17488 49.9372C7.81582 51.5781 10.0414 52.5 12.3621 52.5H43.8621C46.1827 52.5 48.4083 51.5781 50.0492 49.9372C51.6902 48.2962 52.6121 46.0706 52.6121 43.75C52.6121 36.75 41.5871 29.75 28.1121 29.75Z" fill="var(--icon-color)"/>
</svg>
