<svg width="24px" viewBox="0 0 51 51" fill="none" xmlns="http://www.w3.org/2000/svg">
<path d="M25.966 4.5271H25.0364C23.9158 4.5271 22.8411 4.97227 22.0487 5.76467C21.2563 6.55708 20.8111 7.63181 20.8111 8.75244V9.13272C20.8103 9.87368 20.6147 10.6014 20.2439 11.2429C19.8731 11.8844 19.3401 12.4171 18.6984 12.7876L17.79 13.3158C17.1477 13.6866 16.419 13.8819 15.6773 13.8819C14.9356 13.8819 14.207 13.6866 13.5647 13.3158L13.2478 13.1468C12.2782 12.5875 11.1263 12.4358 10.045 12.7249C8.96361 13.0141 8.04119 13.7204 7.48017 14.689L7.01538 15.4918C6.45608 16.4614 6.30435 17.6133 6.5935 18.6946C6.88265 19.776 7.58905 20.6984 8.55763 21.2594L8.87453 21.4707C9.51314 21.8394 10.0441 22.3688 10.4148 23.0062C10.7854 23.6437 10.9827 24.3671 10.9872 25.1045V26.1819C10.9902 26.9265 10.7963 27.6586 10.4253 28.3041C10.0543 28.9497 9.51933 29.4857 8.87453 29.858L8.55763 30.0481C7.58905 30.6091 6.88265 31.5316 6.5935 32.6129C6.30435 33.6942 6.45608 34.8461 7.01538 35.8157L7.48017 36.6185C8.04119 37.5871 8.96361 38.2935 10.045 38.5827C11.1263 38.8718 12.2782 38.7201 13.2478 38.1608L13.5647 37.9918C14.207 37.6209 14.9356 37.4257 15.6773 37.4257C16.419 37.4257 17.1477 37.6209 17.79 37.9918L18.6984 38.5199C19.3401 38.8904 19.8731 39.4231 20.2439 40.0646C20.6147 40.7061 20.8103 41.4339 20.8111 42.1748V42.5551C20.8111 43.6757 21.2563 44.7505 22.0487 45.5429C22.8411 46.3353 23.9158 46.7805 25.0364 46.7805H25.966C27.0866 46.7805 28.1614 46.3353 28.9538 45.5429C29.7462 44.7505 30.1913 43.6757 30.1913 42.5551V42.1748C30.1921 41.4339 30.3877 40.7061 30.7585 40.0646C31.1293 39.4231 31.6623 38.8904 32.304 38.5199L33.2125 37.9918C33.8548 37.6209 34.5834 37.4257 35.3251 37.4257C36.0668 37.4257 36.7955 37.6209 37.4378 37.9918L37.7547 38.1608C38.7243 38.7201 39.8762 38.8718 40.9575 38.5827C42.0388 38.2935 42.9613 37.5871 43.5223 36.6185L43.9871 35.7946C44.5464 34.825 44.6981 33.6731 44.4089 32.5918C44.1198 31.5104 43.4134 30.588 42.4448 30.027L42.1279 29.858C41.4831 29.4857 40.9481 28.9497 40.5771 28.3041C40.2061 27.6586 40.0123 26.9265 40.0153 26.1819V25.1256C40.0123 24.3811 40.2061 23.649 40.5771 23.0034C40.9481 22.3579 41.4831 21.8218 42.1279 21.4496L42.4448 21.2594C43.4134 20.6984 44.1198 19.776 44.4089 18.6946C44.6981 17.6133 44.5464 16.4614 43.9871 15.4918L43.5223 14.689C42.9613 13.7204 42.0388 13.0141 40.9575 12.7249C39.8762 12.4358 38.7243 12.5875 37.7547 13.1468L37.4378 13.3158C36.7955 13.6866 36.0668 13.8819 35.3251 13.8819C34.5834 13.8819 33.8548 13.6866 33.2125 13.3158L32.304 12.7876C31.6623 12.4171 31.1293 11.8844 30.7585 11.2429C30.3877 10.6014 30.1921 9.87368 30.1913 9.13272V8.75244C30.1913 7.63181 29.7462 6.55708 28.9538 5.76467C28.1614 4.97227 27.0866 4.5271 25.966 4.5271Z" stroke="var(--icon-color)" stroke-width="5" stroke-linecap="round" stroke-linejoin="round"/>
<path d="M25.4641 31.6899C28.9645 31.6899 31.8021 28.8523 31.8021 25.3519C31.8021 21.8515 28.9645 19.0139 25.4641 19.0139C21.9637 19.0139 19.1261 21.8515 19.1261 25.3519C19.1261 28.8523 21.9637 31.6899 25.4641 31.6899Z" stroke="var(--icon-color)" stroke-width="4" stroke-linecap="round" stroke-linejoin="round"/>
</svg>
